<?xml version="1.0" encoding="UTF-8" standalone="no"?>
<svg
   width="462pt"
   height="339pt"
   viewBox="0 0 462 339"
   version="1.1"
   id="svg2"
   inkscape:version="1.4.2 (f4327f4, 2025-05-13)"
   sodipodi:docname="pluginIcon.svg"
   xmlns:inkscape="http://www.inkscape.org/namespaces/inkscape"
   xmlns:sodipodi="http://sodipodi.sourceforge.net/DTD/sodipodi-0.dtd"
   xmlns="http://www.w3.org/2000/svg"
   xmlns:svg="http://www.w3.org/2000/svg"
   xmlns:rdf="http://www.w3.org/1999/02/22-rdf-syntax-ns#"
   xmlns:cc="http://creativecommons.org/ns#"
   xmlns:dc="http://purl.org/dc/elements/1.1/">
  <metadata
     id="metadata20">
    <rdf:RDF>
      <cc:Work
         rdf:about="">
        <dc:format>image/svg+xml</dc:format>
        <dc:type
           rdf:resource="http://purl.org/dc/dcmitype/StillImage" />
      </cc:Work>
    </rdf:RDF>
  </metadata>
  <defs
     id="defs18" />
  <sodipodi:namedview
     pagecolor="#ffffff"
     bordercolor="#666666"
     borderopacity="1"
     objecttolerance="10"
     gridtolerance="10"
     guidetolerance="10"
     inkscape:pageopacity="0"
     inkscape:pageshadow="2"
     inkscape:window-width="2560"
     inkscape:window-height="1009"
     id="namedview16"
     showgrid="false"
     inkscape:zoom="0.70710678"
     inkscape:cx="-166.8772"
     inkscape:cy="325.97623"
     inkscape:window-x="-8"
     inkscape:window-y="-8"
     inkscape:window-maximized="1"
     inkscape:current-layer="svg2"
     inkscape:showpageshadow="2"
     inkscape:pagecheckerboard="0"
     inkscape:deskcolor="#d1d1d1"
     inkscape:document-units="pt" />
  <path
     fill="#41cd52"
     d=" M 63.50 0.00 L 462.00 0.00 L 462.00 274.79 C 440.60 296.26 419.13 317.66 397.61 339.00 L 0.00 339.00 L 0.00 63.39 C 21.08 42.18 42.34 21.13 63.50 0.00 Z"
     id="path6"
     inkscape:export-filename="path6.png"
     inkscape:export-xdpi="96"
     inkscape:export-ydpi="96" />
  <g
     id="g2"
     transform="matrix(0.77741238,0,0,0.77741238,-12.827238,30.13733)">
    <path
       d="M 66.87,18.83 C 82,8.82 100.71,6.29 118.5,6.45 c 16.94,0.21 34.72,3.18 48.76,13.29 10.2,7.17 16.83,18.24 21.25,29.69 7.15,18.8 9.25,39.1 9.49,59.08 0.03,20.12 -0.88,40.68 -7.54,59.85 -4.46,13.04 -12.95,24.62 -24.15,32.66 8.06,13.06 16.28,26.02 24.34,39.08 -10.13,4.67 -20.23,9.37 -30.37,14.02 -8.63,-14.24 -17.22,-28.51 -25.88,-42.73 -11.71,1.92 -23.69,1.77 -35.46,0.47 C 84.84,210.17 70.47,205.87 59.59,196.38 51.23,189.14 45.98,179.01 42.39,168.71 36.51,151.29 34.93,132.75 34.66,114.47 34.52,94.71 35.78,74.64 41.74,55.68 46.35,41.42 53.98,27.19 66.87,18.83 Z"
       id="path8"
       fill="#ffffff" />
    <path
       d="m 238.63,18.19 c 10.6,-0.01 21.2,-0.01 31.8,0 0.03,14.02 -0.01,28.03 0.02,42.05 13.55,0.02 27.1,0 40.65,0.01 -0.23,9.1 -0.48,18.2 -0.74,27.3 -13.54,0.03 -27.07,-0.01 -40.61,0.02 0.03,22.98 -0.07,45.96 0.05,68.94 0.26,6.29 0.12,12.93 2.89,18.74 2.02,4.48 7.46,5.63 11.89,5.78 8.35,-0.03 16.69,-0.52 25.04,-0.67 0.51,8.36 1,16.73 1.48,25.09 -16.61,2.79 -34.04,6.13 -50.54,0.91 -6.95,-2.06 -13.43,-6.67 -16.25,-13.54 -5.05,-11.69 -5.46,-24.7 -5.68,-37.25 -0.02,-22.67 0,-45.33 -0.01,-68 -7.39,-0.02 -14.78,0.01 -22.17,-0.02 -0.02,-9.09 -0.02,-18.19 0,-27.29 7.39,-0.03 14.77,0.01 22.16,-0.02 0.03,-14.02 -0.01,-28.03 0.02,-42.05 z"
       id="path10"
       fill="#ffffff" />
    <path
       fill="#41cd52"
       d="m 105.01,35.2 c 10.29,-1.34 21.09,-0.98 30.83,2.91 7.89,3.12 14.59,9.23 18.13,16.97 5.43,11.73 7.51,24.68 8.56,37.47 1.14,17.02 0.98,34.2 -1.37,51.12 -1.65,10.07 -4,20.68 -10.82,28.62 -6.92,7.97 -17.59,11.39 -27.83,12.19 -10.8,0.79 -22.19,0 -31.94,-5.11 -5.69,-3.03 -10.52,-7.78 -13.34,-13.6 -3.42,-6.97 -5.3,-14.58 -6.62,-22.2 -3.98,-24.16 -4.94,-49.16 0.5,-73.18 2.24,-9.06 5.5,-18.36 12.12,-25.19 5.76,-5.85 13.78,-8.87 21.78,-10 z"
       id="path12" />
  </g>
  <text
     xml:space="preserve"
     style="font-style:normal;font-variant:normal;font-weight:normal;font-stretch:normal;font-size:215.787px;font-family:'JetBrainsMono Nerd Font';-inkscape-font-specification:'JetBrainsMono Nerd Font';text-align:start;letter-spacing:-13.4866px;writing-mode:lr-tb;direction:ltr;text-anchor:start;fill:#ffffff;stroke-width:0.89911"
     x="2.5359724"
     y="-286.33167"
     id="text2"
     transform="rotate(90)"><tspan
       sodipodi:role="line"
       id="tspan2"
       style="font-style:normal;font-variant:normal;font-weight:bold;font-stretch:normal;font-size:215.787px;font-family:'JetBrainsMono Nerd Font';-inkscape-font-specification:'JetBrainsMono Nerd Font Bold';letter-spacing:-13.4866px;stroke-width:0.89911"
       x="2.5359724"
       y="-286.33167">UI</tspan></text>
  <g
     id="g3"
     transform="matrix(1.0674371,0,0,1.0674371,-1.3014848,-17.104133)">
    <path
       style="font-size:117.534px;font-family:'JetBrainsMono Nerd Font';-inkscape-font-specification:'JetBrainsMono Nerd Font';letter-spacing:-7.34594px;fill:#ffffff;stroke-width:1.05807"
       d="m 37.582393,317.11417 c -5.642946,0 -10.100873,-1.58002 -13.373781,-4.74008 -3.272908,-3.16004 -4.909362,-7.50511 -4.909362,-13.0352 v -27.93258 c 0,-5.53008 1.636454,-9.87515 4.909362,-13.03521 3.272908,-3.16004 7.730835,-4.74007 13.373781,-4.74007 5.530087,0 9.931587,1.60825 13.204497,4.82472 3.2729,3.16005 4.90936,7.4769 4.90936,12.95056 h -7.61798 c 0,-3.49862 -0.93108,-6.17902 -2.79326,-8.04119 -1.80574,-1.91861 -4.37328,-2.87791 -7.702617,-2.87791 -3.329338,0 -5.953308,0.9593 -7.87191,2.87791 -1.862171,1.86217 -2.793257,4.54257 -2.793257,8.04119 v 27.93258 c 0,3.49863 0.931086,6.20724 2.793257,8.12584 1.918602,1.86217 4.542572,2.79326 7.87191,2.79326 3.329337,0 5.896877,-0.93109 7.702617,-2.79326 1.86218,-1.9186 2.79326,-4.62721 2.79326,-8.12584 h 7.61798 c 0,5.47366 -1.63646,9.81873 -4.90936,13.0352 -3.27291,3.16006 -7.67441,4.74008 -13.204497,4.74008 z m 44.819087,0 c -5.53009,0 -9.90338,-1.60824 -13.11986,-4.82472 -3.21648,-3.21648 -4.82472,-7.81548 -4.82472,-13.797 v -26.23969 c 0,-5.98153 1.60824,-10.58053 4.82472,-13.79701 3.21648,-3.21647 7.58977,-4.82472 13.11986,-4.82472 5.53008,0 9.90336,1.60825 13.11984,4.82472 3.21648,3.21648 4.82472,7.78726 4.82472,13.71236 v 26.32434 c 0,5.98152 -1.60824,10.58052 -4.82472,13.797 -3.21648,3.21648 -7.58976,4.82472 -13.11984,4.82472 z m 0,-6.85618 c 3.32934,0 5.86866,-0.93109 7.61797,-2.79326 1.80574,-1.9186 2.70862,-4.62721 2.70862,-8.12584 v -27.93258 c 0,-3.49862 -0.90288,-6.17902 -2.70862,-8.04119 -1.74931,-1.91861 -4.28863,-2.87791 -7.61797,-2.87791 -3.27292,0 -5.81224,0.9593 -7.61799,2.87791 -1.80574,1.86217 -2.70861,4.54257 -2.70861,8.04119 v 27.93258 c 0,3.49863 0.90287,6.20724 2.70861,8.12584 1.80575,1.86217 4.34507,2.79326 7.61799,2.79326 z m 26.19735,6.00974 v -61.79025 h 11.25767 l 7.87192,26.74755 8.21048,-26.74755 h 11.25768 v 61.79025 h -7.36405 v -29.20224 c 0,-2.76505 0.0282,-5.92509 0.0847,-9.48015 0.11285,-3.6115 0.25393,-7.25119 0.42322,-10.91911 0.16929,-3.66791 0.36679,-6.96903 0.5925,-9.90336 l -9.98801,31.91085 h -6.60224 l -9.5648,-31.14906 c 0.45144,4.17579 0.7618,8.74657 0.93109,13.71236 0.16929,4.9658 0.25393,10.24195 0.25393,15.82847 v 29.20224 z m 47.18912,0 v -61.79025 h 19.89138 c 5.7558,0 10.32659,1.66467 13.71235,4.994 3.4422,3.2729 5.1633,7.67441 5.1633,13.20449 0,5.5301 -1.7211,9.9598 -5.1633,13.28914 -3.38576,3.27292 -7.95655,4.90937 -13.71235,4.90937 h -12.27341 v 25.39325 z m 7.61797,-32.24944 h 12.27341 c 3.32934,0 5.98152,-1.01573 7.95655,-3.04719 2.03146,-2.08788 3.04719,-4.85294 3.04719,-8.29513 0,-3.49862 -1.01573,-6.26367 -3.04719,-8.29512 -1.97503,-2.03147 -4.62721,-3.0472 -7.95655,-3.0472 h -12.27341 z m 38.97863,32.24944 v -6.94083 h 12.61198 v -47.9086 h -12.61198 v -6.94082 h 33.01123 v 6.94082 H 222.7838 v 47.9086 h 12.61198 v 6.94083 z m 47.61234,0 v -61.79025 h 7.61797 v 54.84942 h 27.93259 v 6.94083 z m 42.9569,0 v -61.79025 h 35.55056 v 6.94082 h -28.01723 v 19.12959 h 25.05468 v 6.77153 h -25.05468 v 22.00748 l 14.41363,0.0575 -7.01461,6.95464 z"
       id="text1"
       aria-label="COMPILE"
       sodipodi:nodetypes="ssssssccccsssscsccccssssssssssssscsscscsscsccccccccscsccccssccccscscsccccscscsccccccccccccccccccccccccccccccccccc" />
    <text
       xml:space="preserve"
       style="font-size:85.1785px;text-align:start;letter-spacing:-3.1942px;writing-mode:lr-tb;direction:ltr;text-anchor:start;fill:#00aa88;stroke-width:0.638838"
       x="326.76028"
       y="316.74872"
       id="text3"><tspan
         sodipodi:role="line"
         id="tspan1"
         style="font-style:normal;font-variant:normal;font-weight:normal;font-stretch:normal;font-size:85.1785px;font-family:'JetBrainsMono Nerd Font';-inkscape-font-specification:'JetBrainsMono Nerd Font';letter-spacing:-3.1942px;fill:#ffffff;stroke-width:0.638838"
         x="326.76028"
         y="316.74872">R</tspan></text>
  </g>
</svg>
